<svg width="59" height="59" viewBox="0 0 59 59" fill="none" xmlns="http://www.w3.org/2000/svg">
<path fill-rule="evenodd" clip-rule="evenodd" d="M29.2852 58.5703C45.459 58.5703 58.5704 45.4589 58.5704 29.2851C58.5704 13.1114 45.459 0 29.2852 0C13.1114 0 0 13.1114 0 29.2851C0 45.4589 13.1114 58.5703 29.2852 58.5703ZM38.4212 13.6423C38.8659 12.0626 37.3329 11.1286 35.9329 12.126L16.3896 26.0485C14.8713 27.1302 15.1102 29.2851 16.7484 29.2851H21.8946V29.2453H31.9245L23.7521 32.1289L20.1493 44.9281C19.7046 46.5077 21.2373 47.4418 22.6375 46.4443L42.1808 32.5219C43.6991 31.4402 43.4601 29.2851 41.822 29.2851H34.0178L38.4212 13.6423Z" fill="url(#paint0_linear_827_2316)"/>
<path fill-rule="evenodd" clip-rule="evenodd" d="M35.933 12.1258C37.3329 11.1284 38.8659 12.0624 38.4212 13.6421L34.0179 29.2849H41.8221C43.4601 29.2849 43.6991 31.44 42.1808 32.5217L22.6375 46.4441C21.2374 47.4416 19.7046 46.5075 20.1493 44.9279L23.7521 32.1287L31.9245 29.2451H21.8947V29.2849H16.7484C15.1102 29.2849 14.8714 27.13 16.3896 26.0483L35.933 12.1258Z" fill="white"/>
<defs>
<linearGradient id="paint0_linear_827_2316" x1="-10" y1="2.57031" x2="71.0001" y2="61.5702" gradientUnits="userSpaceOnUse">
<stop stop-color="#7821DE"/>
<stop offset="0.535349" stop-color="#7821DE"/>
<stop offset="1" stop-color="white"/>
</linearGradient>
</defs>
</svg>
